<?xml version="1.0" encoding="utf-8"?>
<!-- Generator: Adobe Illustrator 26.0.0, SVG Export Plug-In . SVG Version: 6.00 Build 0)  -->
<svg version="1.1" id="Layer_1" xmlns="http://www.w3.org/2000/svg" xmlns:xlink="http://www.w3.org/1999/xlink" x="0px" y="0px"
	 viewBox="0 0 700 700" style="enable-background:new 0 0 700 700;" xml:space="preserve">
<style type="text/css">
	.st0{fill:#FFFFFF;}
</style>
<path class="st0" d="M586,98.4H113.9C54.4,98.4,6,146.8,6,206.3v222.3c0,53,37.8,97,88.3,106v53.5c0,15.4,9.2,29.2,23.5,35.2
	c4.8,1.9,9.7,3,14.6,3c9.8,0,19.5-3.9,26.9-11.1l78.6-78.8H586c59.5,0,107.9-48.4,107.9-107.9V206.3C694,146.8,645.6,98.4,586,98.4
	L586,98.4z M661.5,428.6c0,41.6-33.9,75.4-75.4,75.4H231.3c-4.3,0-8.4,1.7-11.5,4.8l-83.4,83.4c-2.3,2.3-4.9,1.8-6.2,1.2
	c-1.3-0.5-3.5-1.9-3.5-5.2v-68c0-8.8-6.9-15.9-15.6-16.2c-40.7-1.4-72.7-34.5-72.7-75.4V206.4c0-41.6,33.9-75.5,75.5-75.5H586
	c41.6,0,75.5,33.9,75.5,75.5V428.6z"/>
</svg>
