<?xml version="1.0" encoding="utf-8"?>
<!-- Generator: Adobe Illustrator 26.0.0, SVG Export Plug-In . SVG Version: 6.00 Build 0)  -->
<svg version="1.1" id="Layer_1" xmlns="http://www.w3.org/2000/svg" xmlns:xlink="http://www.w3.org/1999/xlink" x="0px" y="0px"
	 viewBox="0 0 700 700" style="enable-background:new 0 0 700 700;" xml:space="preserve">
<style type="text/css">
	.st0{fill:#FFFFFF;}
</style>
<g>
	<path class="st0" d="M642.8,572.2c-6.2-57.8-51.7-100.7-107.9-100.7c-29.4,0-56.8,12.7-76.7,32.8L256.4,358l199.1-143.4
		c17.3,13.3,38.3,22.3,61.8,23.4h4.4c55.6,0,101.3-42.9,107.9-100.7c0.6-2.2,0.6-5,0.6-7.7c0-2.8,0-5-0.6-7.7
		C623.4,64,578.3,21.1,522.3,21.1c-59,0-108.5,49.5-108.5,108.5c0,11.1,1.6,22.3,5,32.8L221.7,304c-19.5-31.2-52.3-51.3-91.2-51.3
		c-59,0-108.5,49.5-108.5,108.5c0,57.2,46.7,105.7,104.1,107.9h4.4c39.5,0,74.5-21.7,93.4-55.6l204.6,147.4
		c-1.2,6.2-1.6,12.3-1.6,18.3c0,57.2,46.7,105.7,104.1,107.9h4.4c55.6,0,101.3-42.9,107.9-100.7c0.6-2.2,0.6-5,0.6-7.7
		C643.8,577.7,643.2,574.9,642.8,572.2L642.8,572.2z M579.3,579.9c-1.6,29.4-25.6,42.9-47.3,42.3c-18.9-0.6-41.1-11.7-41.1-42.3
		c0-30,22.3-41.7,41.1-42.3h1.2C554.2,538.2,577.1,550.9,579.3,579.9L579.3,579.9z M175,361.4c-1.6,29.4-26.2,42.9-47.3,42.3
		c-18.9-0.6-41.1-11.7-41.1-42.3c0-30,22.3-41.7,41.1-42.3h1.2C149.9,319.1,172.8,332.4,175,361.4L175,361.4z M477.6,129.3
		c0-30,22.3-41.7,41.1-42.3h1.2c21.1,0,43.9,12.7,45.7,42.3c-1.6,29.4-25.6,42.9-47.3,42.3C499.8,171.1,477.6,159.3,477.6,129.3
		L477.6,129.3z"/>
</g>
</svg>
